<?xml version="1.0" encoding="utf-8"?>
<!-- Generator: Adobe Illustrator 17.1.0, SVG Export Plug-In . SVG Version: 6.00 Build 0)  -->
<!DOCTYPE svg PUBLIC "-//W3C//DTD SVG 1.1//EN" "http://www.w3.org/Graphics/SVG/1.1/DTD/svg11.dtd">
<svg version="1.1" id="Слой_1" xmlns="http://www.w3.org/2000/svg" xmlns:xlink="http://www.w3.org/1999/xlink" x="0px" y="0px"
	 viewBox="0 0 595.3 841.9" enable-background="new 0 0 595.3 841.9" xml:space="preserve">
<path d="M63.8,429.3c0.5-2.2,1.1-4.3,1.6-6.5c4.5-19.8,18.1-32.9,37.9-36.3c1.3-0.2,2.6-0.6,4.3-0.9c0-1.8,0-3.4,0-5.1
	c0-22.6-0.1-45.3,0.1-67.9c0-5,0.3-10.1,1.3-14.9c3.8-18.7,15.8-29.9,35.2-33.3c4-0.7,8.2-0.9,12.2-0.9c93.3-0.1,186.5,0,279.8-0.1
	c9.7,0,19.1,1.4,27.7,6.2c14.2,7.9,20.6,20.8,20.9,36.5c0.5,24.6,0.2,49.2,0.2,73.8c0,1.8,0,3.6,0,5.6c3.5,0.8,6.8,1.3,10,2.3
	c20.4,6.4,31.6,20.7,34.5,41.5c0.9,6,0.9,12.1,0.9,18.2c0.1,15,0,30.1,0,45.1c0,14.5-6.5,21.1-21,21.5c-0.7,0-1.5,0.1-2.9,0.2
	c0,1.7,0,3.3,0,4.9c0,13.1,0,26.1,0,39.2c0,13.5-7.1,20.5-20.5,20.6c-4.6,0-9.1,0.1-13.7,0c-11.2-0.2-18.5-7.2-18.7-18.5
	c-0.2-13.5-0.1-27-0.1-40.6c0-1.7,0-3.3,0-5.3c-104.4,0-208.5,0-313.1,0c0,1.7,0,3.3,0,5c0,13.1,0,26.1,0,39.2
	c-0.1,13.3-7,20.2-20.2,20.3c-4.4,0-8.8,0-13.2,0c-12-0.1-19.3-7.2-19.5-19.3c-0.2-13.2,0-26.4,0-39.6c0-1.6,0-3.3,0-5.6
	c-11.7,1.4-19.9-2.9-23.9-13.9C63.8,476.7,63.8,453,63.8,429.3z M511.5,451.8c-0.4-8.2-0.4-15.9-1.4-23.6
	c-0.8-6.4-3.6-12.1-8.6-16.6c-8-7.3-17.8-8.6-28-8.6c-118.2,0-236.4,0-354.6,0c-3.8,0-7.6,0.2-11.3,0.8c-11.8,2-21.2,8-24.2,19.9
	c-2.2,8.9-2.1,18.5-3.1,28C224.7,451.8,367.6,451.8,511.5,451.8z M141.2,384.9c0-2,0-3.7,0-5.3c0-12.5-0.1-24.9,0.1-37.4
	c0.1-10.2,7.4-17.7,17.5-17.8c36.9-0.1,73.8-0.1,110.7,0c8.8,0,15.5,6,17.1,14.8c0.4,2.4,0.5,4.8,0.5,7.3c0,12.7,0,25.5,0,38.4
	c7.2,0,13.9,0,21,0c0-13.7,0-27,0-40.4c0-13,6.9-20.1,19.8-20.1c35.2,0,70.5,0,105.7,0c13.1,0,20.1,7.1,20.2,20.4
	c0.1,11.7,0,23.4,0,35.1c0,1.6,0,3.3,0,5.4c3.5,0,6.5-0.2,9.5,0c3,0.2,4-0.9,3.9-3.9c-0.2-8.2,0-16.4-0.1-24.6
	c-0.1-17.3,0-34.6-0.5-51.9c-0.3-11.9-7.7-20.1-19.5-22.4c-3.8-0.8-7.8-0.9-11.8-0.9c-92.6,0-185.3,0-277.9,0c-2.6,0-5.2,0-7.7,0.2
	c-9.7,0.9-17.9,4.7-21.4,14.4c-2,5.6-3.3,11.7-3.4,17.7c-0.4,22.5-0.2,45-0.1,67.4c0,1.2,0.1,2.4,0.2,3.8
	C130.3,384.9,135.4,384.9,141.2,384.9z M510.9,470.3c-143.4,0-286.3,0-429.3,0c0,8.8,0,17.3,0,25.9c143.2,0,286.1,0,429.3,0
	C510.9,487.6,510.9,479.1,510.9,470.3z M160.5,342.4c0,14.3,0,28.3,0,42.4c36.5,0,72.8,0,109.2,0c0-14.3,0-28.2,0-42.4
	C233.3,342.4,197.1,342.4,160.5,342.4z M435.5,342.7c-0.6-0.2-1-0.5-1.5-0.5c-35.1,0-70.1,0-105.2-0.1c-3,0-3,1.8-3,3.9
	c0,10.8,0,21.6,0,32.3c0,2.1,0,4.2,0,6.5c36.9,0,73.2,0,109.6,0C435.5,370.5,435.5,356.6,435.5,342.7z M105.4,560.5
	c5.6,0,11,0,16.4,0c0-15.6,0-31,0-46.2c-5.6,0-10.9,0-16.4,0C105.4,529.7,105.4,545,105.4,560.5z M487.4,514.4c-5.9,0-11.3,0-16.5,0
	c0,15.6,0,30.9,0,46c5.8,0,11.1,0,16.5,0C487.4,544.8,487.4,529.7,487.4,514.4z"/>
</svg>
