<?xml version="1.0" encoding="utf-8"?>
<!-- Generator: Adobe Illustrator 17.1.0, SVG Export Plug-In . SVG Version: 6.00 Build 0)  -->
<!DOCTYPE svg PUBLIC "-//W3C//DTD SVG 1.1//EN" "http://www.w3.org/Graphics/SVG/1.1/DTD/svg11.dtd">
<svg version="1.1" id="Слой_1" xmlns="http://www.w3.org/2000/svg" xmlns:xlink="http://www.w3.org/1999/xlink" x="0px" y="0px"
	 viewBox="0 0 595.3 841.9" enable-background="new 0 0 595.3 841.9" xml:space="preserve">
<path d="M91.8,452.9c3-9.9,9.2-16,19.9-16.8c0.7-0.1,1.6-1.3,1.8-2.1c5.1-20,28-31.4,48.6-21.3c0.6,0.3,1.2,0.4,2.1,0.7
	c4.2-7.4,10.1-13,18.2-15.9c13.2-4.7,24.9-2.1,35.1,7.4c2.6,2.4,5.1,4,8.8,4.5c14.1,2.1,23.4,10.1,27.8,23.7c0.6,2,1.2,3.1,3.7,3.1
	c66.9-0.1,133.9-0.1,200.8-0.1c0.5,0,1-0.1,1.8-0.2c0.1-1.2,0.2-2.4,0.2-3.5c0-46.1,0.1-92.3,0-138.4c0-23.3-14.6-42.3-36-47.5
	c-26.3-6.4-47.9,8.4-51.8,35.7c-0.2,1.3-0.3,2.6-0.5,4.2c1,0.4,1.9,0.8,2.9,1.1c13.9,4.4,23.1,16.3,23.9,30.8
	c0.3,5.7-1.9,8.5-7.5,8.5c-17.7,0.2-35.5,0.2-53.2,0c-5.5,0-7.5-2.6-7.3-8.2c0.4-14.1,9.6-26.7,22.8-30.6c3.8-1.1,4.8-2.9,5.3-6.5
	c2-15.6,8.3-29.2,20.9-39.1c17.3-13.7,43.2-14.9,63.2-3c20.5,12.2,30.6,30.5,31,54.2c0.2,11.2,0,22.4,0,33.6c0,34.5,0,69.1,0,103.6
	c0,1.6,0,3.2,0,5.3c2.3,0,4.4-0.1,6.5,0c12,0.4,20.7,8.9,20.7,20.4c0.1,11.6-8.4,20.1-20.5,20.5c-2.5,0.1-5,0-7.9,0
	c-2.6,10.1-5,20-7.6,29.9c-4.1,16-7.4,32.2-12.7,47.8c-6.2,18.2-20,28.3-39.1,31.1c-1.1,0.2-2.3,0.4-3.8,0.8c2.5,5,4.8,9.6,7,14.3
	c0.7,1.4,1.3,2.9,1.6,4.5c0.5,3.4-1.5,7.3-4.5,8.1c-3.5,0.9-5.9-1-7.4-4c-3.3-6.5-6.7-13-9.8-19.7c-1.2-2.6-2.7-3.4-5.4-3.4
	c-60.7,0.1-121.3,0.1-182,0c-3,0-4.5,1-5.7,3.6c-2.8,6.2-6,12.2-9.1,18.2c-0.7,1.3-1.4,2.7-2.5,3.6c-2.4,2.1-5.2,2.6-8.1,0.7
	c-2.9-1.9-3.6-4.7-2.2-7.7c2.1-4.7,4.5-9.3,6.8-14c0.6-1.3,1.2-2.6,1.8-4c-5.1-0.5-9.9-0.6-14.5-1.6c-20.1-4.6-32.4-17.5-37.5-37.3
	c-5.8-22.3-11.4-44.6-16.8-67c-0.7-3-1.9-4.2-5-3.9c-6.7,0.5-13.4-0.2-18.1-5.4c-2.8-3-4.4-7.1-6.6-10.7
	C91.8,458.2,91.8,455.6,91.8,452.9z M135.2,477.3c0,0.6-0.1,1-0.1,1.4c5.8,22.6,11.3,45.2,17.4,67.7c4.4,16.4,17.4,26.3,34.4,26.3
	c73.5,0.1,146.9,0.1,220.4,0c17.8,0,30.8-10.7,35.1-28.1c3.5-14.4,6.8-28.8,10.2-43.1c1.9-8,3.8-16,5.7-24.2
	C350.4,477.3,242.8,477.3,135.2,477.3z M296.5,463.4c60.2,0,120.5,0,180.7,0c1.6,0,3.2,0.1,4.8-0.1c3.6-0.4,5.5-2.8,5.7-6.2
	c0.2-3.4-1.3-6-4.8-6.9c-1.8-0.4-3.7-0.4-5.5-0.4c-120.5,0-241,0-361.5,0c-1.2,0-2.4-0.1-3.6,0.1c-4.3,0.4-6.8,3.1-6.7,7
	c0.1,4,2.6,6.4,7,6.6c1.3,0.1,2.7,0,4,0C176.5,463.4,236.5,463.4,296.5,463.4z M128,435.9c37.6,0,75.2,0,112.8,0
	c-2.4-8.4-9.9-13.5-20.1-13.3c-3.9,0.1-6.5-1.1-8.6-4.4c-8.6-13.3-28.2-12.1-35.4,2.2c-1.1,2.1-1.7,4.5-2.5,6.7
	c-1.9,5.4-6.9,6.7-11.3,3c-2.2-1.9-4.5-3.8-7.1-5.2C144.9,419.1,130.8,424.6,128,435.9z M384,313c-1.7-7.8-10.2-13.7-19-13.4
	c-9.1,0.4-17.5,6.4-18.3,13.4C359.1,313,371.5,313,384,313z"/>
<path d="M399.1,378.7c-0.1,1.7,0,3.5-0.5,5.1c-1,3.5-3.4,5.3-7.1,5.1c-3.5-0.2-5.8-2.4-6.1-6.1c-0.2-2.6-0.2-5.3-0.1-7.9
	c0.2-4.4,2.7-6.8,6.7-6.8c4,0,6.5,2.4,6.8,6.7c0.1,1.3,0,2.6,0,4C399,378.7,399.1,378.7,399.1,378.7z"/>
<path d="M358.3,378.2c0-1.6-0.2-3.2,0-4.8c0.5-3.3,2.6-5.1,5.9-5.4c3.4-0.2,6.3,1,6.9,4.5c0.6,3.5,0.7,7.1,0.3,10.6
	c-0.4,3.8-3.7,6-7.4,5.7c-3.6-0.3-5.7-2.7-5.9-6.7c-0.1-1.3,0-2.7,0-4C358.2,378.2,358.2,378.2,358.3,378.2z"/>
<path d="M330.7,378.2c0.1-1.6,0-3.2,0.3-4.8c0.5-3.3,2.6-5.1,5.9-5.3c3.4-0.2,6.3,1,6.9,4.5c0.6,3.6,0.6,7.4,0.1,11
	c-0.5,3.7-3.6,5.7-7.2,5.3c-3.7-0.4-5.7-2.6-5.9-6.3c-0.1-1.5,0-2.9,0-4.4C330.8,378.2,330.8,378.2,330.7,378.2z"/>
<path d="M385.4,407.2c0-5.5,2.2-8.4,6.6-8.6c4.5-0.1,7,3,7,8.6c0,5.5-2.3,8.3-6.9,8.3C387.7,415.5,385.4,412.7,385.4,407.2z"/>
<path d="M358.1,349.1c0-5.6,2.2-8.3,6.7-8.3c4.5,0,6.9,2.8,6.9,8.3c0,5.6-2.5,8.7-7,8.6C360.3,357.5,358.1,354.6,358.1,349.1z"/>
<path d="M385.4,349.1c0-5.6,2.2-8.4,6.7-8.4c4.7-0.1,7,2.8,6.9,8.6c0,5.4-2.5,8.4-6.9,8.3C387.7,357.6,385.4,354.6,385.4,349.1z"/>
<path d="M330.8,349.2c0-5.7,2.1-8.4,6.6-8.4c4.7-0.1,7.1,2.9,7,8.5c0,5.3-2.6,8.4-6.9,8.4C333.1,357.6,330.8,354.7,330.8,349.2z"/>
<path d="M358.1,407c0-5.5,2.4-8.4,6.8-8.3c4.4,0,6.8,3.1,6.8,8.5c0,5.5-2.3,8.4-6.7,8.4C360.4,415.6,358.1,412.8,358.1,407z"/>
<path d="M344.5,407.2c0,5.5-2.4,8.3-6.9,8.3c-4.7,0-6.8-2.8-6.8-8.7c0.1-5.4,2.5-8.3,7-8.2C342.1,398.8,344.5,401.9,344.5,407.2z"/>
</svg>
